Coordinates
version=1
nRows=8
nColumns=40
inDegrees=yes
endheader
time	pelvis_tilt	pelvis_list	pelvis_rotation	pelvis_tx	pelvis_ty	pelvis_tz	hip_flexion_r	hip_adduction_r	hip_rotation_r	knee_angle_r	knee_angle_r_beta	ankle_angle_r	subtalar_angle_r	mtp_angle_r	hip_flexion_l	hip_adduction_l	hip_rotation_l	knee_angle_l	knee_angle_l_beta	ankle_angle_l	subtalar_angle_l	mtp_angle_l	lumbar_extension	lumbar_bending	lumbar_rotation	arm_flex_r	arm_add_r	arm_rot_r	elbow_flex_r	pro_sup_r	wrist_flex_r	wrist_dev_r	arm_flex_l	arm_add_l	arm_rot_l	elbow_flex_l	pro_sup_l	wrist_flex_l	wrist_dev_l
1760625106.13917994	      8.96681402	     -1.96020643	      0.42473417	      0.15873939	      0.85243297	      0.00069203	     80.00000000	     -7.00000000	      0.00000000	     80.00000000	      1.39626340	      0.00000000	      0.00000000	      0.00000000	     80.00000000	     -7.00000000	      0.00000000	     80.00000000	      1.39626340	      0.00000000	      0.00000000	      0.00000000	    -17.28840672	     -1.12392830	      1.76589863	      5.87309281	     -8.89098341	      2.58254874	     99.07838607	    178.96857608	     12.98884346	     26.71130290	      1.40584585	     -8.19791976	     -2.38814835	    110.37698243	    179.99984796	     33.99382326	     29.46983337
1760625106.14917994	      8.96691994	     -1.96058370	      0.42479154	      0.15873199	      0.85244891	      0.00069199	     80.00000000	     -7.00000000	      0.00000000	     80.00000000	      1.39626340	      0.00000000	      0.00000000	      0.00000000	     80.00000000	     -7.00000000	      0.00000000	     80.00000000	      1.39626340	      0.00000000	      0.00000000	      0.00000000	    -17.28814388	     -1.12442901	      1.76579280	      5.87358098	     -8.89166747	      2.58212180	     99.07865368	    178.96857209	     12.98880427	     26.71134170	      1.40509824	     -8.19804247	     -2.38797166	    110.37708318	    179.99984796	     33.99342049	     29.46988792
1760625106.15917993	      8.96695965	     -1.96106607	      0.42495682	      0.15873058	      0.85246517	      0.00069609	     80.00000000	     -7.00000000	      0.00000000	     80.00000000	      1.39626340	      0.00000000	      0.00000000	      0.00000000	     80.00000000	     -7.00000000	      0.00000000	     80.00000000	      1.39626340	      0.00000000	      0.00000000	      0.00000000	    -17.28789786	     -1.12505711	      1.76571157	      5.87422884	     -8.89248453	      2.58160101	     99.07897123	    178.96856045	     12.98876220	     26.71138345	      1.40430946	     -8.19824180	     -2.38781172	    110.37718120	    179.99984796	     33.99301712	     29.46994156
1760625106.16917992	      8.96702289	     -1.96160748	      0.42521063	      0.15872976	      0.85247308	      0.00070323	     80.00000000	     -7.00000000	      0.00000000	     80.00000000	      1.39626340	      0.00000000	      0.00000000	      0.00000000	     80.00000000	     -7.00000000	      0.00000000	     80.00000000	      1.39626340	      0.00000000	      0.00000000	      0.00000000	    -17.28765812	     -1.12576653	      1.76566909	      5.87497817	     -8.89341228	      2.58101150	     99.07930684	    178.96854283	     12.98871917	     26.71142756	      1.40348315	     -8.19853246	     -2.38766286	    110.37728217	    179.99984796	     33.99261153	     29.46999482
1760625106.17917991	      8.96722750	     -1.96216280	      0.42554782	      0.15872574	      0.85248664	      0.00071230	     80.00000000	     -7.00000000	      0.00000000	     80.00000000	      1.39626340	      0.00000000	      0.00000000	      0.00000000	     80.00000000	     -7.00000000	      0.00000000	     80.00000000	      1.39626340	      0.00000000	      0.00000000	      0.00000000	    -17.28723047	     -1.12651961	      1.76568295	      5.87587708	     -8.89444884	      2.58032839	     99.07968878	    178.96851919	     12.98867247	     26.71147547	      1.40266086	     -8.19893252	     -2.38755914	    110.37742678	    179.99984796	     33.99220202	     29.47004889
1760625106.18917990	      8.96735308	     -1.96292871	      0.42591282	      0.15873210	      0.85249884	      0.00071327	     80.00000000	     -7.00000000	      0.00000000	     80.00000000	      1.39626340	      0.00000000	      0.00000000	      0.00000000	     80.00000000	     -7.00000000	      0.00000000	     80.00000000	      1.39626340	      0.00000000	      0.00000000	      0.00000000	    -17.28683850	     -1.12745578	      1.76571934	      5.87689618	     -8.89557725	      2.57958289	     99.08008631	    178.96848906	     12.98862622	     26.71152492	      1.40190833	     -8.19945688	     -2.38751559	    110.37759833	    179.99984796	     33.99178670	     29.47010559
1760625106.19917989	      8.96763211	     -1.96358748	      0.42628319	      0.15873254	      0.85251201	      0.00072229	     80.00000000	     -7.00000000	      0.00000000	     80.00000000	      1.39626340	      0.00000000	      0.00000000	      0.00000000	     80.00000000	     -7.00000000	      0.00000000	     80.00000000	      1.39626340	      0.00000000	      0.00000000	      0.00000000	    -17.28629286	     -1.12831575	      1.76573527	      5.87794725	     -8.89684130	      2.57876176	     99.08047858	    178.96845275	     12.98857955	     26.71157759	      1.40119292	     -8.20005660	     -2.38750765	    110.37782091	    179.99984796	     33.99136742	     29.47016353
1760625106.20918012	      8.95808899	     -1.95935607	      0.42645735	      0.15874674	      0.85244720	      0.00074971	     80.00000000	     -7.00000000	      0.00000000	     80.00000000	      1.39626340	      0.00000000	      0.00000000	      0.00000000	     80.00000000	     -7.00000000	      0.00000000	     80.00000000	      1.39626340	      0.00000000	      0.00000000	      0.00000000	    -17.27858910	     -1.13658516	      1.76139930	      5.90881693	     -8.97056691	      2.54837216	     99.09146124	    178.96773515	     12.98632313	     26.71460643	      1.37400066	     -8.24624235	     -2.38086159	    110.41356941	    179.99984796	     33.94800408	     29.47506216
